<?xml version="1.0" encoding="utf-8"?>
<!-- Generator: Adobe Illustrator 24.1.2, SVG Export Plug-In . SVG Version: 6.00 Build 0)  -->
<svg version="1.1" id="Ebene_1" xmlns="http://www.w3.org/2000/svg" xmlns:xlink="http://www.w3.org/1999/xlink" x="0px" y="0px"
	 viewBox="0 0 359.93 39.43" style="enable-background:new 0 0 359.93 39.43;" xml:space="preserve">
<style type="text/css">
	.st0{fill:#15598A;}
	.st1{fill:#676766;}
</style>
<g>
	<g>
		<polygon class="st0" points="31.73,23.53 18.44,0 44.96,0 		"/>
		<polygon class="st0" points="45.4,16.52 45.4,39.43 18,39.43 18,16.52 28.64,35.74 34.77,35.74 		"/>
		<path class="st1" d="M0,0v39.43h8.82V0H0z"/>
	</g>
	<g>
		<path class="st1" d="M59.15,36.15V4.86h5.52v31.29H59.15z"/>
		<path class="st1" d="M73.43,36.15V4.86h5.52l11.5,20.35l11.5-20.35h5.56v31.29h-5.56V15.38l-9.64,17.15h-3.66l-9.69-17.15v20.77
			H73.43z"/>
		<path class="st1" d="M116.26,36.15V4.86h5.52l11.5,20.35l11.5-20.35h5.56v31.29h-5.56V15.38l-9.64,17.15h-3.66l-9.69-17.15v20.77
			H116.26z"/>
		<path class="st1" d="M162.76,8.94c3.11-3.11,7-4.68,11.68-4.68c4.64,0,8.48,1.58,11.59,4.68c3.11,3.11,4.68,6.95,4.68,11.59
			c0,4.59-1.58,8.48-4.68,11.59c-3.11,3.11-6.95,4.64-11.59,4.64c-4.68,0-8.58-1.53-11.68-4.64c-3.11-3.11-4.64-7-4.64-11.59
			C158.13,15.89,159.66,12.04,162.76,8.94z M166.89,28.31c1.99,2.09,4.54,3.11,7.56,3.11s5.52-1.02,7.51-3.11
			c1.99-2.09,3.01-4.73,3.01-7.83s-1.02-5.66-3.01-7.74c-1.99-2.09-4.5-3.15-7.51-3.15s-5.56,1.07-7.56,3.15
			c-1.99,2.09-3.01,4.64-3.01,7.74S164.9,26.23,166.89,28.31z"/>
		<path class="st0" d="M199.34,36.15V4.86h3.76l12.75,22.3l12.8-22.3h3.75v31.29h-3.75v-24.2L217.1,32.21h-2.46L203.1,12v24.15
			H199.34z"/>
		<path class="st0" d="M240,36.15l13.77-31.29h2.97l13.77,31.29h-3.89l-3.15-7.19h-16.36l-3.15,7.19H240z M255.3,10.23l-6.68,15.25
			h13.31L255.3,10.23z"/>
		<path class="st0" d="M271.48,8.33V4.86h27.58v3.48h-11.91v27.82h-3.75V8.33H271.48z"/>
		<path class="st0" d="M329.48,4.86v3.48h-18.68v10.24h16.41v3.48h-16.41v10.62h18.91v3.48h-22.67V4.86H329.48z"/>
		<path class="st0" d="M355.25,12.46c-0.51-2.55-3.38-4.45-6.95-4.45c-3.85,0-6.77,2.09-6.77,5.01c0,1.53,0.74,2.69,2.55,3.57
			c1.85,0.88,3.11,1.3,6.07,2.04c2.18,0.51,3.24,0.79,5.24,1.76c2.78,1.25,4.36,3.2,4.54,6.91c0,2.78-1.07,5.05-3.2,6.77
			c-2.09,1.72-4.82,2.6-8.11,2.6c-3.01,0-5.56-0.7-7.65-2.13c-2.09-1.44-3.43-3.2-3.99-5.38l3.71-1.11c0.23,1.39,1.11,2.55,2.6,3.52
			c1.48,0.97,3.24,1.44,5.33,1.44c2.18,0,3.94-0.51,5.38-1.53c1.44-1.02,2.18-2.32,2.18-3.89c0-1.62-0.79-2.83-2.32-3.62
			c-1.48-0.79-2.69-1.21-4.73-1.72c-0.93-0.23-1.53-0.42-1.85-0.46l-1.76-0.51c-0.83-0.28-1.44-0.51-1.76-0.65l-1.53-0.69
			c-1.34-0.6-1.72-1.07-2.64-1.95c-1.21-1.11-1.76-2.69-1.76-4.73c0-2.6,0.97-4.73,2.92-6.35c1.95-1.67,4.45-2.5,7.46-2.5
			c2.74,0,5.1,0.65,7.05,1.99c1.99,1.3,3.24,2.97,3.75,4.96L355.25,12.46z"/>
	</g>
</g>
</svg>
